<?xml version="1.0" encoding="UTF-8"?>
<svg enable-background="new 0 0 133.49 133.49" viewBox="0 0 133.49 133.49" xmlns="http://www.w3.org/2000/svg">
 <defs>
  <linearGradient id="b" x1="-240.13" x2="-238" gradientTransform="matrix(73.999 463.33 463.33 -73.999 -1.9648e5 1.4518e5)" gradientUnits="userSpaceOnUse">
   <stop stop-color="#fff" offset="0"/>
   <stop offset="1"/>
  </linearGradient>
  <linearGradient id="a" x1="-239.11" x2="-237.05" gradientTransform="matrix(0 -63.167 -63.167 0 29955 -15003)" gradientUnits="userSpaceOnUse">
   <stop stop-color="#fff" offset="0"/>
   <stop offset="1"/>
  </linearGradient>
 </defs>
 <path d="m66.742 1.065c-35.795 0-65.677 29.887-65.677 65.678s29.882 65.681 65.677 65.681 65.683-29.887 65.683-65.681-29.888-65.678-65.683-65.678m2e-3 72.959c-9.388 0-9.388-14.557 0-14.557s9.388 14.557 0 14.557" fill="#d6d6d6"/>
 <path d="m66.742 2.486c-35.019 0-64.258 29.24-64.258 64.258s29.237 64.263 64.258 64.263c-34.247 0-62.844-28.6-62.844-62.846s28.595-62.844 62.844-62.844 62.846 28.595 62.846 62.844-28.597 62.846-62.846 62.846c35.021 0 64.262-29.242 64.262-64.263s-29.243-64.258-64.262-64.258" fill="#fff"/>
 <path d="m66.746 128.17c33.471 0 61.419-27.943 61.419-61.417s-27.944-61.424-61.419-61.424c32.735 0 60.066 27.334 60.066 60.069s-27.331 60.066-60.066 60.068-60.066-27.335-60.066-60.068 27.332-60.067 60.066-60.069c-33.473 0-61.42 27.954-61.42 61.425s27.949 61.416 61.42 61.416" fill="#c6c6c6"/>
 <path d="m0 66.744c0 36.332 30.411 66.747 66.742 66.747s66.748-30.413 66.748-66.747-30.417-66.744-66.748-66.744-66.742 30.413-66.742 66.744m2.13 0c0-35.17 29.441-64.613 64.612-64.613s64.617 29.439 64.617 64.613-29.443 64.616-64.617 64.616-64.612-29.445-64.612-64.616" fill="url(#b)"/>
 <path d="m40.812,31.232c10.341-1.864 2.865,14.16 7.206,18.462 3.444,3.411 10.259-1.652 13.49-3.2 5.872-2.813-1.688,8.234-2.8,9.553-3.405,4.033-10.168,10.759-16.157,9.125-6.859-1.868-4.167-14.343-5.34-19.45-1.96-8.51-11.575-1.417-16.705-.162-7.181,1.751 3.441-14.926 4.791-16.575 3.249-3.972 7.045-7.608 11.323-10.462 .505-.335 9.226-4.713 9.261-3.557 .108,3.525-25.532,19.955-5.069,16.266" fill="#adadad"/>
 <path d="m59.037,110.778c-9.539-6.627 10.391-12.107 7.753-19.302-1.559-4.253-8.534-4.905-12.149-6.331-4.909-1.937 7.543-4.403 8.879-4.531 5.308-.509 15.562-.577 18.428,5.195 3.072,6.187-7.335,12.824-10.116,17.268-5.013,8.007 8.496,8.914 12.573,12.559 4.16,3.718-15.471,7.676-17.262,7.813-4.868.371-9.858.197-14.641-.83-.574-.122-9.307-3.044-8.556-3.923 2.214-2.588 32.267,4.01 15.091-7.918" fill="#fff"/>
 <path d="m117.052,83.997c.125,6.744-4.935,13.545-9.106,18.393-.893,1.037-10.904,9.004-10.781,8.011 .325-2.647 10.359-19.833 6.099-20.813-7.136-1.643-20.054,13.378-15.937-2.273 .416-1.583 2.602-12.292-.957-10.821-5.723,2.36-8.714,8.412-15.469,9.236 7.913-4.78 13.185-10.433 15.681-19.486 2.351-8.526 9.127-6.881 9.451,1.238 .124,3.074-1.663,13.201 2.605,14.359 3.258.884 18.268-5.877 18.414,2.156" fill="#adadad"/>
 <path d="m60.387,11.778c5.359-3.77 13.582-3.403 19.753-2.683 1.321.153 13.178,3.871 12.312,4.313-3.408,1.737-19.623,1.039-20.142,5.883-.339,3.185 10.433,6.894 12.579,9.663 2.365,3.054-3.565,4.206-5.419,4.849-1.61.56-11.968,4.836-8.146,6.909 5.177,2.808 11.374,2.425 15.574,7.251-7.718-3.561-15.121-5.061-23.353-2.297-6.388,2.145-12.962-1.533-6.114-7.131 2.827-2.311 11.258-5.635 11.371-9.939 .101-3.806-15.249-12.004-8.415-16.818" fill="#fff"/>
 <path d="m66.744 45.266c-27.702 0-27.7 42.958 0 42.958s27.705-42.958 0-42.958m0 28.758c-9.388 0-9.388-14.557 0-14.557s9.388 14.557 0 14.557" fill="#adadad"/>
 <path d="m66.744 47.928c-24.268 0-24.266 37.633 0 37.633s24.271-37.633 0-37.633m0 26.096c-9.388 0-9.388-14.557 0-14.557s9.388 14.557 0 14.557" fill="#f7f7f7"/>
 <path d="m58.4 66.744c0 10.761 16.688 10.761 16.688 0s-16.688-10.757-16.688 0m2.13 0c0-8.009 12.427-8.009 12.427 0 0 8.015-12.427 8.015-12.427 0" fill="url(#a)"/>
</svg>
