<?xml version="1.0" encoding="UTF-8"?>
<svg viewBox="0 0 700 700" xmlns="http://www.w3.org/2000/svg" xmlns:xlink="http://www.w3.org/1999/xlink">
 <defs>
  <linearGradient id="a">
   <stop stop-color="#fff" stop-opacity="0" offset="0"/>
   <stop stop-color="#fff" offset=".6615"/>
   <stop stop-color="#fff" stop-opacity="0" offset="1"/>
  </linearGradient>
  <linearGradient id="e" x1="487.42" x2="507.26" y1="557.91" y2="486.68" gradientTransform="matrix(-1.0585 -.88822 .88822 -1.0585 324.65 1328.4)" gradientUnits="userSpaceOnUse" xlink:href="#a"/>
  <linearGradient id="d" x1="487.42" x2="507.26" y1="557.91" y2="486.68" gradientTransform="matrix(-1.0585 .88822 -.88822 -1.0585 1189.2 675.25)" gradientUnits="userSpaceOnUse" xlink:href="#a"/>
  <linearGradient id="c" x1="487.42" x2="507.26" y1="557.91" y2="486.68" gradientTransform="matrix(1.0585 .88822 -.88822 1.0585 410.74 -355.07)" gradientUnits="userSpaceOnUse" xlink:href="#a"/>
  <linearGradient id="b" x1="487.42" x2="507.26" y1="557.91" y2="486.68" gradientTransform="matrix(1.0585 -.88822 .88822 1.0585 -453.8 298.12)" gradientUnits="userSpaceOnUse" xlink:href="#a"/>
 </defs>
 <g transform="translate(-18.188 -136.19)">
  <path d="m368.19 136.19c-193.3 0-350 156.7-350 350s156.7 350 350 350 350-156.7 350-350-156.7-350-350-350zm0 244.47c58.29 0 105.53 47.241 105.53 105.53s-47.241 105.53-105.53 105.53-105.56-47.241-105.56-105.53 47.273-105.53 105.56-105.53z"/>
  <path d="m363.91 156.41c-180.18 2.2822-325.53 149.06-325.53 329.78 0 182.14 147.67 329.81 329.81 329.81s329.78-147.67 329.78-329.81-147.64-329.78-329.78-329.78c-1.423 0-2.8625-0.018-4.2812 0zm4.2812 224.25c58.29 0 105.53 47.241 105.53 105.53s-47.241 105.53-105.53 105.53-105.56-47.241-105.56-105.53 47.273-105.53 105.56-105.53z" fill="#808080"/>
  <path d="m41.853 544.14c10.086 57.198 35.038 110.74 72.372 155.24l172.98-145.15-0.3214-0.38301c-12.204-14.544-19.792-31.424-22.964-48.856l-222.07 39.153z" fill="url(#d)"/>
  <path d="m480.86 797.6c54.578-19.865 102.98-53.736 140.31-98.229l-172.98-145.15-0.32138 0.38303c-12.204 14.544-27.51 24.948-44.126 31.099l77.12 211.9z" fill="url(#c)"/>
  <path d="m693.54 429.24c-10.086-57.198-35.038-110.74-72.372-155.24l-172.98 145.15 0.3214 0.38301c12.204 14.544 19.792 31.424 22.964 48.856l222.07-39.153z" fill="url(#b)"/>
  <path d="m254.53 175.77c-54.578 19.865-102.98 53.736-140.31 98.229l172.98 145.15 0.32138-0.38303c12.204-14.544 27.51-24.948 44.126-31.099l-77.12-211.9z" fill="url(#e)"/>
  <path d="m368.19 362.47c-68.332 0-123.72 55.387-123.72 123.72s55.387 123.72 123.72 123.72 123.72-55.387 123.72-123.72-55.387-123.72-123.72-123.72zm0 18.188c58.29 0 105.53 47.241 105.53 105.53s-47.241 105.53-105.53 105.53-105.56-47.241-105.56-105.53 47.273-105.53 105.56-105.53z"/>
  <path d="m364.41 194.78c-159.21 2.0166-287.66 131.72-287.66 291.41 0 160.94 130.5 291.44 291.44 291.44s291.41-130.5 291.41-291.44-130.46-291.41-291.41-291.41c-1.2574 0-2.5277-0.0159-3.7812 0zm3.7812 169.12c67.547 0 122.28 54.734 122.28 122.28s-54.734 122.31-122.28 122.31-122.31-54.766-122.31-122.31 54.766-122.28 122.31-122.28z" fill="#999" opacity=".2"/>
  <path d="m364.97 239.25c-134.92 1.709-243.75 111.61-243.75 246.94 0 136.39 110.57 246.97 246.97 246.97s246.94-110.57 246.94-246.97-110.54-246.94-246.94-246.94c-1.0656 0-2.1564-0.0135-3.2188 0zm3.2188 124.66c67.547 0 122.28 54.734 122.28 122.28s-54.734 122.31-122.28 122.31-122.31-54.766-122.31-122.31 54.766-122.28 122.31-122.28z" fill="#999" opacity=".2"/>
  <path d="m365.72 295.81c-104.02 1.3176-187.94 86.044-187.94 190.38 0 105.15 85.254 190.41 190.41 190.41s190.38-85.254 190.38-190.41-85.222-190.38-190.38-190.38c-0.82149 0-1.6497-0.0104-2.4688 0zm2.4688 68.094c67.547 0 122.28 54.734 122.28 122.28s-54.734 122.31-122.28 122.31-122.31-54.766-122.31-122.31 54.766-122.28 122.31-122.28z" fill="#999" opacity=".2"/>
  <path d="m366.31 342.28c-78.632 0.99601-142.06 65.038-142.06 143.91 0 79.49 64.448 143.94 143.94 143.94s143.91-64.448 143.91-143.94-64.417-143.91-143.91-143.91c-0.621 0-1.2558-8e-3 -1.875 0zm1.875 21.625c67.547 0 122.28 54.734 122.28 122.28s-54.734 122.31-122.28 122.31-122.31-54.766-122.31-122.31 54.766-122.28 122.31-122.28z" fill="#999" opacity=".2"/>
 </g>
</svg>
