<?xml version='1.0' encoding='utf-8'?>
<svg xmlns="http://www.w3.org/2000/svg" version="1.1" viewBox="0 0 430 430"><g transform="translate(3768,1923)" fill-rule="evenodd" stroke-linecap="round" stroke-linejoin="round" stroke-width="15"><path d="m-3498-1708a55 55 0 0 1-55 55 55 55 0 0 1-55-55 55 55 0 0 1 55-55 55 55 0 0 1 55 55zm159.95 0a214.95 214.95 0 0 1-214.95 214.95 214.95 214.95 0 0 1-214.95-214.95 214.95 214.95 0 0 1 214.95-214.95 214.95 214.95 0 0 1 214.95 214.95z" fill="#424e7b"/><path d="m-3445.5-1894.2-85.024 147.27a45 45 0 0 1 20.961 27.318l164.27-44.018c-14.87-55.636-51.496-102.38-100.21-130.57z" fill="#424e7b"/><path d="m-3553-1923c-118.74 0-215 96.259-215 215 0 19.249 2.5286 37.907 7.2734 55.66l164.32-44.029a45 45 0 0 1-1.5957-11.631 45 45 0 0 1 45-45 45 45 0 0 1 22.494 6.0391l85.024-147.27c-31.628-18.3-68.349-28.773-107.52-28.773z" fill="#4f5d86"/><path d="m-3596.4-1696.4-164.32 44.029c14.87 55.636 51.498 102.38 100.21 130.57l85.068-147.34a45 45 0 0 1-20.955-27.252z" fill="#424e7b"/><path d="m-3345.3-1763.7-164.27 44.018a45 45 0 0 1 1.5449 11.643 45 45 0 0 1-45 45 45 45 0 0 1-22.449-6.1172l-85.068 147.34c31.628 18.3 68.35 28.773 107.52 28.773 118.74 0 215-96.259 215-215 0-19.249-2.5286-37.907-7.2734-55.66z" fill="#3a4872"/><path d="m-3553-1813c-57.99 0-105 47.01-105 105s47.01 105 105 105 105-47.01 105-105-47.01-105-105-105zm0 25c44.183 0 80 35.817 80 80s-35.817 80-80 80-80-35.817-80-80 35.817-80 80-80z" fill="#242e54"/><path d="m-3553-1798a90 90 0 0 0-90 90 90 90 0 0 0 90 90 90 90 0 0 0 90-90 90 90 0 0 0-90-90zm0 35a55 55 0 0 1 55 55 55 55 0 0 1-55 55 55 55 0 0 1-55-55 55 55 0 0 1 55-55z" fill="#faf8f7"/><path d="m-3553-1788a80 80 0 0 0-80 80 80 80 0 0 0 80 80 80 80 0 0 0 80-80 80 80 0 0 0-80-80zm0 50a30 30 0 0 1 30 30 30 30 0 0 1-30 30 30 30 0 0 1-30-30 30 30 0 0 1 30-30z" fill="#d2dade"/><path d="m-3535.5-1708a17.5 17.5 0 0 1-17.5 17.5 17.5 17.5 0 0 1-17.5-17.5 17.5 17.5 0 0 1 17.5-17.5 17.5 17.5 0 0 1 17.5 17.5zm17.5 0a35 35 0 0 1-35 35 35 35 0 0 1-35-35 35 35 0 0 1 35-35 35 35 0 0 1 35 35z" fill="#faf8f7"/></g></svg>